C:\Users\Nicos\Documents\OpenSimProjects\SprintingProject\Study1\PredictiveResults\IC_pred_Sprinting_optimum_27-October-2023__11-55-39_p02_maxVel_01___IKTD_Minus_2_GRF.mot
version=1
nRows=9
nColumns=127
inDegrees=yes
endheader
time	ground_force_vx	ground_force_vy	ground_force_vz	ground_force_px	ground_force_py	ground_force_pz	ground_torque_x	ground_torque_y	ground_torque_z	1_ground_force_vx	1_ground_force_vy	1_ground_force_vz	1_ground_force_px	1_ground_force_py	1_ground_force_pz	1_ground_torque_x	1_ground_torque_y	1_ground_torque_z	2_ground_force_vx	2_ground_force_vy	2_ground_force_vz	2_ground_force_px	2_ground_force_py	2_ground_force_pz	2_ground_torque_x	2_ground_torque_y	2_ground_torque_z	3_ground_force_vx	3_ground_force_vy	3_ground_force_vz	3_ground_force_px	3_ground_force_py	3_ground_force_pz	3_ground_torque_x	3_ground_torque_y	3_ground_torque_z	4_ground_force_vx	4_ground_force_vy	4_ground_force_vz	4_ground_force_px	4_ground_force_py	4_ground_force_pz	4_ground_torque_x	4_ground_torque_y	4_ground_torque_z	5_ground_force_vx	5_ground_force_vy	5_ground_force_vz	5_ground_force_px	5_ground_force_py	5_ground_force_pz	5_ground_torque_x	5_ground_torque_y	5_ground_torque_z	6_ground_force_vx	6_ground_force_vy	6_ground_force_vz	6_ground_force_px	6_ground_force_py	6_ground_force_pz	6_ground_torque_x	6_ground_torque_y	6_ground_torque_z	7_ground_force_vx	7_ground_force_vy	7_ground_force_vz	7_ground_force_px	7_ground_force_py	7_ground_force_pz	7_ground_torque_x	7_ground_torque_y	7_ground_torque_z	8_ground_force_vx	8_ground_force_vy	8_ground_force_vz	8_ground_force_px	8_ground_force_py	8_ground_force_pz	8_ground_torque_x	8_ground_torque_y	8_ground_torque_z	9_ground_force_vx	9_ground_force_vy	9_ground_force_vz	9_ground_force_px	9_ground_force_py	9_ground_force_pz	9_ground_torque_x	9_ground_torque_y	9_ground_torque_z	10_ground_force_vx	10_ground_force_vy	10_ground_force_vz	10_ground_force_px	10_ground_force_py	10_ground_force_pz	10_ground_torque_x	10_ground_torque_y	10_ground_torque_z	11_ground_force_vx	11_ground_force_vy	11_ground_force_vz	11_ground_force_px	11_ground_force_py	11_ground_force_pz	11_ground_torque_x	11_ground_torque_y	11_ground_torque_z	12_ground_force_vx	12_ground_force_vy	12_ground_force_vz	12_ground_force_px	12_ground_force_py	12_ground_force_pz	12_ground_torque_x	12_ground_torque_y	12_ground_torque_z	13_ground_force_vx	13_ground_force_vy	13_ground_force_vz	13_ground_force_px	13_ground_force_py	13_ground_force_pz	13_ground_torque_x	13_ground_torque_y	13_ground_torque_z
0.160356	-0.000000	0.000000	0.000000	0.522714	0.079266	0.439372	0.000000	0.000000	0.000000	-0.000000	0.000000	0.000000	0.532326	0.101652	0.458617	0.000000	0.000000	0.000000	-0.000000	0.000000	0.000000	0.541608	0.113615	0.454255	0.000000	0.000000	0.000000	-0.000000	0.000000	0.000000	0.539243	0.111348	0.432112	0.000000	0.000000	0.000000	-0.000000	0.000000	0.000000	0.555121	0.156957	0.481241	0.000000	0.000000	0.000000	-0.000000	0.000000	0.000000	0.544920	0.128185	0.447932	0.000000	0.000000	0.000000	-0.000000	0.000000	0.000000	0.558164	0.186462	0.422643	0.000000	0.000000	0.000000	-0.000000	0.000000	-0.000000	1.616926	0.115570	0.138698	0.000000	0.000000	0.000000	-0.000000	0.000000	-0.000000	1.577541	0.126555	0.117883	0.000000	0.000000	0.000000	-0.000000	0.000000	-0.000000	1.543947	0.129090	0.126651	0.000000	0.000000	0.000000	-0.000000	0.000000	-0.000000	1.544205	0.123942	0.146909	0.000000	0.000000	0.000000	-0.000000	0.000000	-0.000000	1.468699	0.151806	0.100220	0.000000	0.000000	0.000000	-0.000000	0.000000	-0.000000	1.515920	0.133786	0.131782	0.000000	0.000000	0.000000	-0.000000	0.000000	-0.000000	1.403814	0.152567	0.152303	0.000000	0.000000	0.000000
0.161004	-0.000000	0.000000	0.000000	0.527842	0.081222	0.438961	0.000000	0.000000	0.000000	-0.000000	0.000000	0.000000	0.537748	0.103548	0.458333	0.000000	0.000000	0.000000	-0.000000	0.000000	0.000000	0.547186	0.115507	0.453996	0.000000	0.000000	0.000000	-0.000000	0.000000	0.000000	0.544814	0.113277	0.431839	0.000000	0.000000	0.000000	-0.000000	0.000000	0.000000	0.561347	0.158759	0.481224	0.000000	0.000000	0.000000	-0.000000	0.000000	0.000000	0.550735	0.130071	0.447754	0.000000	0.000000	0.000000	-0.000000	0.000000	0.000000	0.564933	0.188326	0.422783	0.000000	0.000000	0.000000	-0.000000	0.000000	-0.000000	1.630754	0.115215	0.139164	0.000000	0.000000	0.000000	-0.000000	0.000000	-0.000000	1.591177	0.126015	0.118324	0.000000	0.000000	0.000000	-0.000000	0.000000	-0.000000	1.557544	0.128415	0.127096	0.000000	0.000000	0.000000	-0.000000	0.000000	-0.000000	1.557896	0.123285	0.147371	0.000000	0.000000	0.000000	-0.000000	0.000000	-0.000000	1.481904	0.150788	0.100613	0.000000	0.000000	0.000000	-0.000000	0.000000	-0.000000	1.529440	0.132996	0.132220	0.000000	0.000000	0.000000	-0.000000	0.000000	-0.000000	1.417026	0.151318	0.152716	0.000000	0.000000	0.000000
0.163049	-0.000000	0.000000	0.000000	0.544532	0.087378	0.437855	0.000000	0.000000	0.000000	-0.000000	0.000000	0.000000	0.555342	0.109521	0.457580	0.000000	0.000000	0.000000	-0.000000	0.000000	0.000000	0.565252	0.121458	0.453307	0.000000	0.000000	0.000000	-0.000000	0.000000	0.000000	0.562845	0.119337	0.431110	0.000000	0.000000	0.000000	-0.000000	0.000000	0.000000	0.581387	0.164429	0.481204	0.000000	0.000000	0.000000	-0.000000	0.000000	0.000000	0.569515	0.135997	0.447286	0.000000	0.000000	0.000000	-0.000000	0.000000	0.000000	0.586570	0.194155	0.423205	0.000000	0.000000	0.000000	-0.000000	0.000000	-0.000000	1.674185	0.114203	0.140640	0.000000	0.000000	0.000000	-0.000000	0.000000	-0.000000	1.634027	0.124413	0.119720	0.000000	0.000000	0.000000	-0.000000	0.000000	-0.000000	1.600286	0.126389	0.128500	0.000000	0.000000	0.000000	-0.000000	0.000000	-0.000000	1.600930	0.121323	0.148833	0.000000	0.000000	0.000000	-0.000000	0.000000	-0.000000	1.523457	0.147670	0.101844	0.000000	0.000000	0.000000	-0.000000	0.000000	-0.000000	1.571953	0.130608	0.133602	0.000000	0.000000	0.000000	-0.000000	0.000000	-0.000000	1.458621	0.147486	0.154010	0.000000	0.000000	0.000000
0.164531	-0.000000	0.000000	0.000000	0.557076	0.091810	0.437269	0.000000	0.000000	0.000000	-0.000000	0.000000	0.000000	0.568526	0.113828	0.457194	0.000000	0.000000	0.000000	-0.000000	0.000000	0.000000	0.578763	0.125740	0.452948	0.000000	0.000000	0.000000	-0.000000	0.000000	0.000000	0.576311	0.123686	0.430731	0.000000	0.000000	0.000000	-0.000000	0.000000	0.000000	0.596272	0.168514	0.481230	0.000000	0.000000	0.000000	-0.000000	0.000000	0.000000	0.583508	0.140255	0.447057	0.000000	0.000000	0.000000	-0.000000	0.000000	0.000000	0.602489	0.198317	0.423492	0.000000	0.000000	0.000000	-0.000000	0.000000	-0.000000	1.705374	0.113576	0.141716	0.000000	0.000000	0.000000	-0.000000	0.000000	-0.000000	1.664820	0.123353	0.120732	0.000000	0.000000	0.000000	-0.000000	0.000000	-0.000000	1.631014	0.125025	0.129517	0.000000	0.000000	0.000000	-0.000000	0.000000	-0.000000	1.631864	0.120012	0.149894	0.000000	0.000000	0.000000	-0.000000	0.000000	-0.000000	1.553369	0.145507	0.102723	0.000000	0.000000	0.000000	-0.000000	0.000000	-0.000000	1.602528	0.128983	0.134600	0.000000	0.000000	0.000000	-0.000000	0.000000	-0.000000	1.488582	0.144818	0.154933	0.000000	0.000000	0.000000
0.165178	-0.000000	0.000000	0.000000	0.562667	0.093737	0.437075	0.000000	0.000000	0.000000	-0.000000	0.000000	0.000000	0.574396	0.115702	0.457071	0.000000	0.000000	0.000000	-0.000000	0.000000	0.000000	0.584772	0.127600	0.452832	0.000000	0.000000	0.000000	-0.000000	0.000000	0.000000	0.582294	0.125573	0.430608	0.000000	0.000000	0.000000	-0.000000	0.000000	0.000000	0.602869	0.170290	0.481253	0.000000	0.000000	0.000000	-0.000000	0.000000	0.000000	0.589719	0.142104	0.446988	0.000000	0.000000	0.000000	-0.000000	0.000000	0.000000	0.609503	0.200117	0.423611	0.000000	0.000000	0.000000	-0.000000	0.000000	-0.000000	1.718907	0.113331	0.142187	0.000000	0.000000	0.000000	-0.000000	0.000000	-0.000000	1.678187	0.122917	0.121174	0.000000	0.000000	0.000000	-0.000000	0.000000	-0.000000	1.644357	0.124457	0.129961	0.000000	0.000000	0.000000	-0.000000	0.000000	-0.000000	1.645295	0.119469	0.150358	0.000000	0.000000	0.000000	-0.000000	0.000000	-0.000000	1.566367	0.144588	0.103103	0.000000	0.000000	0.000000	-0.000000	0.000000	-0.000000	1.615807	0.128302	0.135035	0.000000	0.000000	0.000000	-0.000000	0.000000	-0.000000	1.501605	0.143682	0.155331	0.000000	0.000000	0.000000
0.167223	-0.000000	0.000000	0.000000	0.580758	0.099785	0.436691	0.000000	0.000000	0.000000	-0.000000	0.000000	0.000000	0.593372	0.121589	0.456853	0.000000	0.000000	0.000000	-0.000000	0.000000	0.000000	0.604181	0.133431	0.452622	0.000000	0.000000	0.000000	-0.000000	0.000000	0.000000	0.601596	0.131476	0.430385	0.000000	0.000000	0.000000	-0.000000	0.000000	0.000000	0.624096	0.175863	0.481372	0.000000	0.000000	0.000000	-0.000000	0.000000	0.000000	0.609729	0.147891	0.446891	0.000000	0.000000	0.000000	-0.000000	0.000000	0.000000	0.631922	0.205732	0.423967	0.000000	0.000000	0.000000	-0.000000	0.000000	-0.000000	1.761278	0.112670	0.143683	0.000000	0.000000	0.000000	-0.000000	0.000000	-0.000000	1.720060	0.121649	0.122569	0.000000	0.000000	0.000000	-0.000000	0.000000	-0.000000	1.686165	0.122775	0.131356	0.000000	0.000000	0.000000	-0.000000	0.000000	-0.000000	1.687374	0.117869	0.151820	0.000000	0.000000	0.000000	-0.000000	0.000000	-0.000000	1.607135	0.141788	0.104281	0.000000	0.000000	0.000000	-0.000000	0.000000	-0.000000	1.657426	0.126262	0.136398	0.000000	0.000000	0.000000	-0.000000	0.000000	-0.000000	1.542469	0.140210	0.156563	0.000000	0.000000	0.000000
0.168705	-0.000000	0.000000	0.000000	0.594258	0.104126	0.436578	0.000000	0.000000	0.000000	-0.000000	0.000000	0.000000	0.607514	0.125817	0.456815	0.000000	0.000000	0.000000	-0.000000	0.000000	0.000000	0.618632	0.137604	0.452585	0.000000	0.000000	0.000000	-0.000000	0.000000	0.000000	0.615952	0.135693	0.430344	0.000000	0.000000	0.000000	-0.000000	0.000000	0.000000	0.639823	0.179855	0.481490	0.000000	0.000000	0.000000	-0.000000	0.000000	0.000000	0.624588	0.152029	0.446909	0.000000	0.000000	0.000000	-0.000000	0.000000	0.000000	0.648412	0.209729	0.424205	0.000000	0.000000	0.000000	-0.000000	0.000000	-0.000000	1.791578	0.112297	0.144766	0.000000	0.000000	0.000000	-0.000000	0.000000	-0.000000	1.750026	0.120833	0.123571	0.000000	0.000000	0.000000	-0.000000	0.000000	-0.000000	1.716096	0.121662	0.132357	0.000000	0.000000	0.000000	-0.000000	0.000000	-0.000000	1.717493	0.116821	0.152869	0.000000	0.000000	0.000000	-0.000000	0.000000	-0.000000	1.636359	0.139858	0.105108	0.000000	0.000000	0.000000	-0.000000	0.000000	-0.000000	1.687231	0.124891	0.137370	0.000000	0.000000	0.000000	-0.000000	0.000000	-0.000000	1.571773	0.137806	0.157424	0.000000	0.000000	0.000000
0.169352	-0.000000	0.000000	0.000000	0.600252	0.106009	0.436558	0.000000	0.000000	0.000000	-0.000000	0.000000	0.000000	0.613787	0.127651	0.456818	0.000000	0.000000	0.000000	-0.000000	0.000000	0.000000	0.625041	0.139411	0.452591	0.000000	0.000000	0.000000	-0.000000	0.000000	0.000000	0.622316	0.137517	0.430349	0.000000	0.000000	0.000000	-0.000000	0.000000	0.000000	0.646776	0.181583	0.481546	0.000000	0.000000	0.000000	-0.000000	0.000000	0.000000	0.631168	0.153820	0.446934	0.000000	0.000000	0.000000	-0.000000	0.000000	0.000000	0.655678	0.211455	0.424304	0.000000	0.000000	0.000000	-0.000000	0.000000	-0.000000	1.804693	0.112162	0.145236	0.000000	0.000000	0.000000	-0.000000	0.000000	-0.000000	1.763001	0.120503	0.124005	0.000000	0.000000	0.000000	-0.000000	0.000000	-0.000000	1.729059	0.121203	0.132789	0.000000	0.000000	0.000000	-0.000000	0.000000	-0.000000	1.730536	0.116392	0.153324	0.000000	0.000000	0.000000	-0.000000	0.000000	-0.000000	1.649026	0.139041	0.105462	0.000000	0.000000	0.000000	-0.000000	0.000000	-0.000000	1.700143	0.124320	0.137789	0.000000	0.000000	0.000000	-0.000000	0.000000	-0.000000	1.584478	0.136784	0.157791	0.000000	0.000000	0.000000
0.171397	-0.000000	0.000000	0.000000	0.619579	0.111901	0.436527	0.000000	0.000000	0.000000	-0.000000	0.000000	0.000000	0.633982	0.133389	0.456846	0.000000	0.000000	0.000000	-0.000000	0.000000	0.000000	0.645661	0.145045	0.452642	0.000000	0.000000	0.000000	-0.000000	0.000000	0.000000	0.642797	0.143204	0.430400	0.000000	0.000000	0.000000	-0.000000	0.000000	0.000000	0.669052	0.186973	0.481727	0.000000	0.000000	0.000000	-0.000000	0.000000	0.000000	0.652306	0.159401	0.447033	0.000000	0.000000	0.000000	-0.000000	0.000000	0.000000	0.678887	0.216825	0.424598	0.000000	0.000000	0.000000	-0.000000	0.000000	-0.000000	1.845621	0.111839	0.146706	0.000000	0.000000	0.000000	-0.000000	0.000000	-0.000000	1.803518	0.119564	0.125354	0.000000	0.000000	0.000000	-0.000000	0.000000	-0.000000	1.769550	0.119861	0.134128	0.000000	0.000000	0.000000	-0.000000	0.000000	-0.000000	1.771270	0.115145	0.154734	0.000000	0.000000	0.000000	-0.000000	0.000000	-0.000000	1.688631	0.136564	0.106543	0.000000	0.000000	0.000000	-0.000000	0.000000	-0.000000	1.740482	0.122623	0.139084	0.000000	0.000000	0.000000	-0.000000	0.000000	-0.000000	1.624212	0.133672	0.158906	0.000000	0.000000	0.000000
